<?xml version="1.0" standalone="no"?>
<!DOCTYPE svg PUBLIC "-//W3C//DTD SVG 20010904//EN"
 "http://www.w3.org/TR/2001/REC-SVG-20010904/DTD/svg10.dtd">
<svg version="1.0" xmlns="http://www.w3.org/2000/svg"
 width="512.000000pt" height="512.000000pt" viewBox="0 0 512.000000 512.000000"
 preserveAspectRatio="xMidYMid meet">
<metadata>
Created by potrace 1.11, written by Peter Selinger 2001-2013
</metadata>
<g transform="translate(0.000000,512.000000) scale(0.100000,-0.100000)"
fill="#000000" stroke="none">
<path d="M2579 5066 c-2 -2 -33 -7 -69 -10 -36 -3 -76 -8 -90 -10 -14 -3 -54
-10 -90 -16 -85 -13 -89 -14 -202 -44 -114 -31 -298 -94 -315 -108 -7 -6 -13
-8 -13 -5 0 10 -237 -111 -331 -169 -310 -190 -612 -483 -804 -779 -114 -176
-206 -366 -271 -558 -35 -102 -78 -262 -88 -327 -5 -33 -8 -46 -21 -117 -28
-149 -27 -537 1 -738 9 -60 32 -152 34 -135 2 8 4 24 5 35 13 98 103 431 124
460 4 6 16 33 26 60 21 58 92 206 136 285 33 61 172 271 192 292 7 7 28 33 47
58 40 52 39 50 146 161 99 102 130 131 236 214 46 36 89 70 96 76 41 33 242
154 327 196 92 47 311 138 352 148 10 3 75 20 144 39 70 18 144 36 165 39 104
15 120 18 139 22 130 27 512 25 613 -5 18 -5 35 -9 37 -9 17 1 82 -16 165 -43
195 -62 420 -192 576 -334 137 -124 212 -157 354 -156 114 0 180 21 268 86
187 138 239 377 128 591 -24 47 -131 156 -236 241 -79 63 -217 164 -224 164
-3 0 -24 13 -48 29 -128 86 -469 240 -588 266 -8 1 -35 9 -60 16 -57 16 -52
15 -135 32 -71 16 -94 20 -175 32 -25 4 -56 9 -70 12 -30 6 -476 14 -481 9z"/>
<path d="M1818 3870 c-43 -21 -78 -36 -78 -33 0 2 -13 -5 -29 -16 -16 -12 -32
-21 -36 -21 -4 0 -52 -27 -108 -61 -564 -336 -973 -885 -1136 -1526 -11 -43
-23 -94 -26 -113 -3 -19 -8 -42 -10 -50 -2 -8 -7 -35 -10 -60 -4 -25 -9 -58
-11 -75 -10 -69 -4 -106 39 -221 155 -419 433 -810 767 -1078 47 -38 94 -76
106 -86 12 -9 25 -19 30 -21 5 -2 54 -34 109 -70 107 -70 261 -151 390 -204
87 -36 245 -91 285 -99 14 -3 61 -14 105 -25 80 -19 116 -26 190 -37 22 -3 51
-7 65 -10 51 -8 208 -17 310 -17 107 0 319 11 329 17 3 2 26 7 51 10 152 20
354 72 510 131 172 64 430 202 570 304 175 127 324 271 359 346 119 251 -9
554 -268 636 -175 55 -341 8 -501 -142 -85 -80 -246 -184 -371 -242 -316 -146
-662 -186 -999 -116 -644 133 -1138 643 -1256 1299 -19 101 -25 374 -11 465 9
60 18 113 24 140 2 11 6 30 9 42 35 171 185 474 304 618 43 51 124 138 155
166 17 15 42 38 57 52 15 14 58 47 95 73 38 26 70 49 72 51 2 2 2 5 0 7 -2 2
-39 -13 -81 -34z"/>
</g>
</svg>
